<svg width="16" height="16" viewBox="0 0 16 16" fill="none" xmlns="http://www.w3.org/2000/svg">
<path d="M3.33333 4.66667H12.5267C12.7129 4.66667 12.8972 4.70571 13.0674 4.78127C13.2377 4.85683 13.3902 4.96722 13.5152 5.10534C13.6402 5.24346 13.7349 5.40624 13.7931 5.58318C13.8514 5.76013 13.8719 5.94731 13.8533 6.13267L13.4533 10.1327C13.4204 10.4617 13.2665 10.7667 13.0213 10.9886C12.7762 11.2105 12.4573 11.3333 12.1267 11.3333H5.76C5.45165 11.3335 5.15278 11.2267 4.9143 11.0312C4.67581 10.8358 4.51244 10.5637 4.452 10.2613L3.33333 4.66667Z" stroke="black" stroke-width="1.33333" strokeLinejoin="round"/>
<path d="M3.33333 4.66667L2.79333 2.50467C2.75722 2.3605 2.67397 2.23254 2.5568 2.1411C2.43964 2.04967 2.29529 2 2.14667 2H1.33333M5.33333 14H6.66667M10.6667 14H12" stroke="black" stroke-width="1.33333" stroke-linecap="round" strokeLinejoin="round"/>
</svg>
