<svg width="65" height="64" viewBox="0 0 65 64" fill="none" xmlns="http://www.w3.org/2000/svg">
<path d="M31.253 60.1217C31.2867 60.4056 31.423 60.626 31.6621 60.7828C31.9011 60.9397 32.1943 61.0182 32.5417 61.0182C32.7957 61.0182 33.018 60.9771 33.2085 60.8949C33.3971 60.8127 33.5446 60.6997 33.6511 60.5559C33.7557 60.4121 33.808 60.2487 33.808 60.0657C33.808 59.9125 33.7716 59.7809 33.6987 59.6707C33.624 59.5623 33.5288 59.4718 33.413 59.3989C33.2972 59.3279 33.1758 59.2691 33.0488 59.2224C32.9218 59.1776 32.8051 59.1412 32.6986 59.1132L32.1159 58.9563C31.9665 58.9171 31.8003 58.8629 31.6172 58.7938C31.4323 58.7247 31.2558 58.6304 31.0878 58.5109C30.9178 58.3932 30.7777 58.2419 30.6675 58.057C30.5573 57.8721 30.5022 57.6452 30.5022 57.3763C30.5022 57.0662 30.5835 56.7861 30.746 56.5358C30.9066 56.2856 31.1419 56.0867 31.4519 55.9391C31.7601 55.7916 32.1346 55.7178 32.5753 55.7178C32.9862 55.7178 33.342 55.7841 33.6427 55.9167C33.9415 56.0493 34.1768 56.2342 34.3487 56.4714C34.5186 56.7086 34.6148 56.9841 34.6372 57.2978H33.92C33.9014 57.0812 33.8285 56.9019 33.7015 56.7599C33.5727 56.6199 33.4102 56.5153 33.2141 56.4462C33.0161 56.3789 32.8032 56.3453 32.5753 56.3453C32.3101 56.3453 32.072 56.3883 31.861 56.4742C31.6499 56.562 31.4828 56.6834 31.3595 56.8384C31.2362 56.9953 31.1746 57.1783 31.1746 57.3875C31.1746 57.578 31.2278 57.733 31.3343 57.8525C31.4407 57.972 31.5808 58.0692 31.7545 58.1439C31.9282 58.2186 32.1159 58.2839 32.3176 58.34L33.0236 58.5417C33.4718 58.6705 33.8267 58.8545 34.0881 59.0936C34.3496 59.3326 34.4803 59.6454 34.4803 60.032C34.4803 60.3533 34.3935 60.6334 34.2198 60.8725C34.0442 61.1134 33.8089 61.3002 33.5138 61.4328C33.2169 61.5673 32.8854 61.6345 32.5193 61.6345C32.1495 61.6345 31.8208 61.5682 31.5332 61.4356C31.2456 61.3048 31.0177 61.1256 30.8496 60.8977C30.6797 60.6698 30.59 60.4112 30.5807 60.1217H31.253Z" fill="black"/>
<path d="M26.3938 57.5998L27.1231 55.1161L27.7575 55.3023L26.1411 60.8073L25.5067 60.6211L26.1002 58.5997L26.0465 58.5839C25.8871 58.7688 25.6922 58.8955 25.4619 58.9641C25.2292 59.034 24.9507 59.0213 24.6263 58.9261C24.345 58.8434 24.1151 58.7146 23.9368 58.5397C23.758 58.3665 23.6443 58.1472 23.5957 57.8818C23.5448 57.6177 23.5714 57.3083 23.6756 56.9534L24.4459 54.33L25.0803 54.5162L24.3226 57.0967C24.2263 57.4246 24.2369 57.7032 24.3546 57.9324C24.4699 58.1628 24.6771 58.322 24.9764 58.4099C25.1843 58.4709 25.3835 58.4817 25.5742 58.4423C25.763 58.4024 25.9297 58.3122 26.0741 58.1716C26.2168 58.0305 26.3233 57.8399 26.3938 57.5998Z" fill="black"/>
<path d="M19.9997 51.8902C20.3265 52.1002 20.5633 52.3623 20.71 52.6764C20.8551 52.9894 20.9069 53.3302 20.8655 53.6987C20.8224 54.0662 20.6808 54.437 20.4404 54.8109C20.1981 55.188 19.9182 55.4732 19.6008 55.6666C19.2818 55.859 18.9498 55.9542 18.6047 55.9522C18.2581 55.9492 17.9213 55.8427 17.5945 55.6327C17.2677 55.4227 17.0318 55.1612 16.8866 54.8481C16.7399 54.534 16.6886 54.1924 16.7326 53.8234C16.7751 53.4533 16.9175 53.0797 17.1599 52.7026C17.4002 52.3287 17.6793 52.0463 17.9973 51.8555C18.3137 51.6637 18.6453 51.5692 18.9919 51.5722C19.337 51.5742 19.6729 51.6802 19.9997 51.8902ZM19.6786 52.3898C19.4304 52.2303 19.1852 52.1627 18.9432 52.1869C18.7011 52.2112 18.475 52.3023 18.2647 52.4602C18.0544 52.6181 17.8716 52.8181 17.7161 53.06C17.5606 53.302 17.4542 53.5522 17.3968 53.8106C17.3395 54.0691 17.3496 54.3142 17.4271 54.546C17.5045 54.7779 17.6674 54.9736 17.9156 55.1331C18.1639 55.2926 18.4095 55.3595 18.6526 55.3336C18.8956 55.3078 19.1228 55.2151 19.3341 55.0556C19.5454 54.8961 19.7288 54.6954 19.8843 54.4535C20.0398 54.2115 20.1457 53.9621 20.2019 53.7052C20.2582 53.4483 20.2472 53.2048 20.1687 52.9745C20.0902 52.7443 19.9269 52.5494 19.6786 52.3898Z" fill="black"/>
<path d="M15.778 48.5656L13.3845 52.3743L12.9296 51.8493L14.8103 48.9889L14.781 48.955L11.6894 50.418L11.2271 49.8845L13.1141 47.0484L13.0847 47.0145L9.99427 48.4617L9.53929 47.9367L13.6499 46.1096L14.0755 46.6008L12.1936 49.477L12.2377 49.5278L15.3524 48.0744L15.778 48.5656Z" fill="black"/>
<path d="M9.75442 38.1035L5.49517 38.7159L5.40427 38.0837L6.06977 37.988L6.0618 37.9326C5.82166 37.8765 5.62452 37.7586 5.47037 37.5789C5.31437 37.3994 5.21644 37.1711 5.17657 36.8938C5.13617 36.6128 5.16633 36.3697 5.26704 36.1647C5.36563 35.9581 5.52105 35.7857 5.73328 35.6476L5.7269 35.6033C5.49123 35.5258 5.29301 35.3874 5.13224 35.1878C4.96963 34.9886 4.86639 34.7364 4.82254 34.4314C4.76778 34.0506 4.84223 33.7219 5.04589 33.4455C5.24769 33.1693 5.59909 32.9952 6.10007 32.9231L8.95066 32.5133L9.04475 33.1677L6.19416 33.5776C5.87989 33.6227 5.66764 33.741 5.55741 33.9323C5.44718 34.1236 5.40881 34.3358 5.4423 34.5687C5.48535 34.8682 5.6093 35.0872 5.81412 35.2256C6.01709 35.3644 6.2563 35.414 6.53175 35.3743L9.30469 34.9757L9.40038 35.6412L6.48324 36.0606C6.24107 36.0954 6.05733 36.202 5.93203 36.3804C5.80489 36.5591 5.75912 36.7723 5.79474 37.02C5.81919 37.1901 5.88734 37.3425 5.99919 37.4774C6.11077 37.6104 6.25349 37.7107 6.42734 37.7781C6.59908 37.844 6.7894 37.8619 6.99829 37.8319L9.66033 37.4491L9.75442 38.1035Z" fill="black"/>
<path d="M9.47189 28.4914C9.4166 28.8759 9.27659 29.2001 9.05184 29.464C8.82737 29.7261 8.5389 29.9148 8.18646 30.0302C7.83428 30.1437 7.4382 30.1689 6.99822 30.1056C6.55455 30.0418 6.17883 29.9057 5.87104 29.6973C5.56353 29.487 5.339 29.2246 5.19745 28.9099C5.05616 28.5933 5.01316 28.2428 5.06845 27.8583C5.12373 27.4738 5.26361 27.1505 5.48809 26.8884C5.71283 26.6245 6.00222 26.4359 6.35625 26.3226C6.71055 26.2075 7.10953 26.1819 7.5532 26.2457C7.99318 26.3089 8.366 26.4455 8.67166 26.6555C8.9776 26.8637 9.2012 27.126 9.34249 27.4426C9.48404 27.7573 9.52717 28.1069 9.47189 28.4914ZM8.88402 28.4069C8.92602 28.1148 8.8857 27.8637 8.76307 27.6536C8.64044 27.4435 8.46363 27.2756 8.23264 27.15C8.00164 27.0243 7.7438 26.941 7.45911 26.9001C7.17442 26.8591 6.90263 26.8663 6.64374 26.9215C6.38485 26.9768 6.16605 27.0878 5.98735 27.2545C5.80865 27.4213 5.69831 27.6507 5.65631 27.9428C5.61432 28.2349 5.65556 28.4861 5.78003 28.6965C5.90451 28.9068 6.08317 29.075 6.31601 29.2009C6.54886 29.3268 6.80763 29.4103 7.09232 29.4512C7.377 29.4921 7.64787 29.4848 7.90491 29.4293C8.16196 29.3738 8.3789 29.2626 8.55575 29.0955C8.7326 28.9285 8.84203 28.699 8.88402 28.4069Z" fill="black"/>
<path d="M10.8836 22.9607L6.96944 21.1731L7.23478 20.5921L7.82598 20.8621L7.8446 20.8213C7.68352 20.6616 7.58534 20.4607 7.55006 20.2187C7.51478 19.9767 7.55068 19.7385 7.65774 19.5041C7.67792 19.4599 7.70398 19.4051 7.73594 19.3396C7.7679 19.2741 7.79333 19.2252 7.81225 19.1928L8.42384 19.4721C8.40943 19.4901 8.38045 19.5334 8.3369 19.6018C8.29242 19.6677 8.25195 19.7406 8.21548 19.8204C8.12859 20.0107 8.09093 20.1988 8.1025 20.3848C8.11315 20.5683 8.16834 20.7351 8.26808 20.8854C8.3669 21.0332 8.50465 21.1474 8.68133 21.2281L11.1583 22.3593L10.8836 22.9607Z" fill="black"/>
<path d="M15.1689 16.2743C14.8973 16.5876 14.594 16.798 14.2587 16.9054C13.9233 17.0102 13.5775 17.0157 13.2213 16.922C12.8648 16.8257 12.5201 16.6332 12.187 16.3446C11.8538 16.0559 11.6129 15.7409 11.464 15.3993C11.3149 15.0552 11.2639 14.7119 11.3109 14.3696C11.3577 14.0247 11.5083 13.7054 11.7627 13.4118C11.9095 13.2424 12.0826 13.0996 12.2822 12.9834C12.4818 12.8672 12.7038 12.7964 12.9482 12.771C13.1912 12.7443 13.4513 12.7806 13.7285 12.88C14.0057 12.9793 14.2961 13.1605 14.5995 13.4234L14.8113 13.6069L12.6391 16.1136L12.2072 15.7394L13.9391 13.7407C13.7556 13.5818 13.56 13.4766 13.3525 13.4252C13.1461 13.3725 12.9432 13.377 12.7438 13.439C12.5455 13.4995 12.3681 13.6201 12.2116 13.8007C12.0391 13.9998 11.9393 14.2148 11.9121 14.4458C11.8848 14.6741 11.9158 14.895 12.0052 15.1084C12.0946 15.3218 12.2289 15.5061 12.4082 15.6615L12.6961 15.911C12.9417 16.1238 13.1866 16.2618 13.4308 16.3251C13.6748 16.3858 13.9073 16.3784 14.1283 16.303C14.3479 16.2264 14.5451 16.0872 14.72 15.8854C14.8338 15.7541 14.9181 15.6196 14.9732 15.482C15.028 15.3417 15.0517 15.2003 15.0441 15.0579C15.0352 14.9142 14.9926 14.7723 14.9164 14.6321L15.4701 14.2668C15.5898 14.4594 15.6598 14.6696 15.6801 14.8972C15.6989 15.1236 15.6665 15.3549 15.5828 15.5913C15.4976 15.8264 15.3597 16.0541 15.1689 16.2743Z" fill="black"/>
<path d="M26.6732 9.06273C26.5406 9.10167 26.4129 9.08759 26.29 9.0205C26.1672 8.95342 26.0863 8.85357 26.0473 8.72096C26.0084 8.58835 26.0225 8.46062 26.0896 8.33776C26.1567 8.21489 26.2565 8.13399 26.3891 8.09506C26.5217 8.05612 26.6494 8.07019 26.7723 8.13728C26.8952 8.20437 26.9761 8.30422 27.015 8.43683C27.0408 8.52463 27.0421 8.61185 27.0188 8.69848C26.9974 8.78458 26.9565 8.86081 26.8962 8.92718C26.8372 8.99124 26.7628 9.03642 26.6732 9.06273Z" fill="black"/>
<path d="M42.4823 5.49283C42.53 5.21097 42.4613 4.96111 42.2761 4.74323C42.0909 4.52535 41.8317 4.36748 41.4984 4.26961C41.2547 4.19805 41.0298 4.17486 40.8239 4.20004C40.6198 4.22574 40.4464 4.29259 40.3037 4.40058C40.1628 4.5091 40.0666 4.65116 40.0151 4.82678C39.9719 4.97372 39.9698 5.11032 40.0086 5.23657C40.0498 5.36155 40.1156 5.47529 40.2062 5.57781C40.2973 5.67852 40.3972 5.76917 40.5059 5.84975C40.6152 5.92854 40.7169 5.99637 40.8111 6.05324L41.326 6.36794C41.4584 6.44766 41.6026 6.54646 41.7587 6.66433C41.9167 6.78272 42.0594 6.92294 42.187 7.08499C42.317 7.24576 42.4087 7.43038 42.4624 7.63883C42.516 7.84728 42.505 8.08053 42.4292 8.33857C42.3418 8.63605 42.185 8.88196 41.9585 9.0763C41.7339 9.27118 41.4521 9.39573 41.1131 9.44995C40.7758 9.5047 40.3957 9.46998 39.9728 9.34581C39.5786 9.23005 39.2559 9.0662 39.0047 8.85425C38.7554 8.64283 38.5817 8.39913 38.4836 8.12314C38.3874 7.84767 38.3727 7.55625 38.4396 7.24889L39.1277 7.45094C39.0846 7.66407 39.104 7.85662 39.1859 8.02859C39.27 8.1993 39.3965 8.34543 39.5652 8.46698C39.7362 8.58727 39.931 8.6795 40.1496 8.7437C40.4041 8.81842 40.6447 8.84429 40.8714 8.82131C41.0986 8.79655 41.2932 8.72716 41.4551 8.61315C41.6176 8.49735 41.7283 8.3391 41.7872 8.1384C41.8409 7.95562 41.8335 7.79189 41.765 7.64721C41.6966 7.50253 41.5895 7.36988 41.4439 7.24927C41.2983 7.12865 41.1366 7.01305 40.9589 6.90247L40.3383 6.51004C39.9446 6.26011 39.6559 5.98362 39.4724 5.68058C39.2889 5.37754 39.2515 5.04055 39.3605 4.66961C39.451 4.36139 39.6132 4.11706 39.8472 3.93662C40.0836 3.75491 40.362 3.64201 40.6825 3.59791C41.0053 3.55255 41.3423 3.58144 41.6935 3.68457C42.0483 3.78875 42.345 3.94497 42.5836 4.15324C42.8228 4.35971 42.9909 4.59593 43.088 4.86191C43.1869 5.12841 43.2 5.40186 43.1274 5.68225L42.4823 5.49283Z" fill="black"/>
<path d="M46.4341 9.28158L45.0347 11.4592L44.4785 11.1018L47.5803 6.27516L48.1365 6.6326L46.9976 8.40487L47.0447 8.43516C47.2497 8.30272 47.4724 8.23603 47.7128 8.2351C47.9557 8.23361 48.2194 8.32424 48.5037 8.507C48.7504 8.66553 48.9346 8.85386 49.0564 9.07199C49.1792 9.28855 49.2266 9.53098 49.1984 9.7993C49.1729 10.067 49.0601 10.3565 48.8602 10.6676L47.382 12.9677L46.8258 12.6103L48.2798 10.3478C48.4646 10.0603 48.5328 9.79002 48.4845 9.53698C48.4388 9.28338 48.2848 9.07226 48.0224 8.90364C47.8401 8.78651 47.652 8.71999 47.458 8.70409C47.2655 8.68919 47.0802 8.72883 46.902 8.823C46.7254 8.91818 46.5694 9.07104 46.4341 9.28158Z" fill="black"/>
<path d="M50.9607 16.5613C50.7063 16.2677 50.553 15.9496 50.5007 15.6069C50.4496 15.2656 50.4959 14.924 50.6395 14.5821C50.7844 14.2416 51.0247 13.9258 51.3607 13.6347C51.6994 13.3412 52.0483 13.1464 52.4074 13.0503C52.7677 12.9555 53.1131 12.9577 53.4436 13.0569C53.7754 13.1574 54.0684 13.3544 54.3228 13.648C54.5772 13.9416 54.7299 14.259 54.781 14.6003C54.8333 14.943 54.7863 15.2852 54.6401 15.6269C54.495 15.97 54.2531 16.2884 53.9144 16.5819C53.5785 16.873 53.2311 17.0653 52.8722 17.1588C52.5145 17.2537 52.1698 17.2509 51.8381 17.1503C51.5076 17.0512 51.2151 16.8549 50.9607 16.5613ZM51.4095 16.1724C51.6028 16.3954 51.8189 16.5293 52.058 16.5742C52.2971 16.6192 52.5398 16.5955 52.786 16.5032C53.0323 16.4109 53.2641 16.2706 53.4814 16.0822C53.6988 15.8939 53.8714 15.6838 53.9992 15.452C54.127 15.2201 54.1864 14.9821 54.1773 14.7378C54.1683 14.4936 54.0672 14.2599 53.874 14.0369C53.6807 13.8139 53.4639 13.6806 53.2234 13.6369C52.9829 13.5932 52.7388 13.6181 52.4912 13.7116C52.2435 13.8051 52.011 13.9461 51.7936 14.1344C51.5763 14.3228 51.4044 14.5322 51.278 14.7628C51.1516 14.9934 51.0936 15.2303 51.1041 15.4733C51.1145 15.7163 51.2163 15.9494 51.4095 16.1724Z" fill="black"/>
<path d="M54.0747 20.9407L57.4443 17.9605L57.7329 18.5925L55.1225 20.8071L55.1411 20.8479L58.5196 20.3151L58.8129 20.9573L56.2033 23.1469L56.2219 23.1877L59.5949 22.6698L59.8835 23.3018L55.4247 23.8967L55.1547 23.3055L57.7707 21.076L57.7428 21.0149L54.3447 21.5319L54.0747 20.9407Z" fill="black"/>
<path d="M56.9068 32.6759L61.1661 33.2883L61.0752 33.9206L60.4097 33.8249L60.4017 33.8803C60.6163 34.0018 60.7723 34.1704 60.8695 34.3863C60.9687 34.6024 60.9983 34.8492 60.9584 35.1265C60.918 35.4074 60.8206 35.6321 60.6662 35.8005C60.5134 35.971 60.3157 36.0926 60.0732 36.1652L60.0668 36.2096C60.2711 36.3503 60.4223 36.539 60.5203 36.7758C60.6202 37.0128 60.6482 37.2838 60.6044 37.5888C60.5496 37.9697 60.3856 38.264 60.1123 38.4719C59.8409 38.68 59.4546 38.7481 58.9537 38.6761L56.1031 38.2662L56.1972 37.6118L59.0478 38.0216C59.362 38.0668 59.599 38.0132 59.7587 37.8606C59.9183 37.7081 60.0149 37.5154 60.0484 37.2825C60.0915 36.983 60.0342 36.738 59.8767 36.5474C59.7211 36.3571 59.5055 36.2421 59.2301 36.2025L56.4571 35.8038L56.5528 35.1383L59.4699 35.5577C59.7121 35.5926 59.9184 35.542 60.0889 35.4062C60.2613 35.2706 60.3652 35.0789 60.4008 34.8312C60.4253 34.6611 60.4029 34.4956 60.3335 34.3347C60.264 34.1756 60.1553 34.0393 60.0075 33.9255C59.8612 33.814 59.6837 33.7431 59.4748 33.7131L56.8127 33.3304L56.9068 32.6759Z" fill="black"/>
<path d="M54.4699 41.9783C54.6312 41.625 54.8569 41.3533 55.1469 41.1634C55.4361 40.9752 55.7661 40.8754 56.1368 40.864C56.5067 40.8543 56.8938 40.9418 57.2981 41.1264C57.7058 41.3126 58.028 41.5491 58.2646 41.8358C58.5004 42.1241 58.6419 42.4392 58.6891 42.7811C58.7354 43.1246 58.6779 43.473 58.5166 43.8264C58.3552 44.1798 58.1299 44.4506 57.8407 44.6388C57.5507 44.8287 57.2199 44.9281 56.8483 44.937C56.4759 44.9477 56.0859 44.8599 55.6781 44.6737C55.2738 44.489 54.9546 44.2529 54.7204 43.9653C54.4855 43.6794 54.3449 43.3647 54.2985 43.0211C54.2514 42.6793 54.3085 42.3317 54.4699 41.9783ZM55.0101 42.2251C54.8875 42.4935 54.8555 42.7458 54.9139 42.9819C54.9724 43.218 55.0948 43.4289 55.281 43.6146C55.4672 43.8002 55.6912 43.9528 55.9528 44.0723C56.2144 44.1917 56.4772 44.2615 56.7412 44.2814C57.0051 44.3013 57.2463 44.2565 57.4648 44.1468C57.6832 44.0372 57.8537 43.8481 57.9763 43.5797C58.0989 43.3113 58.1301 43.0586 58.0699 42.8217C58.0098 42.5848 57.8857 42.3731 57.6978 42.1867C57.5099 42.0003 57.2851 41.8473 57.0234 41.7278C56.7618 41.6083 56.4999 41.539 56.2376 41.5199C55.9753 41.5007 55.7358 41.5463 55.5191 41.6568C55.3023 41.7672 55.1327 41.9566 55.0101 42.2251Z" fill="black"/>
<path d="M51.5571 46.8873L54.8092 49.7052L54.3909 50.1879L53.8997 49.7623L53.8703 49.7962C53.9799 49.9949 54.0175 50.2153 53.9832 50.4574C53.9488 50.6995 53.8473 50.9179 53.6785 51.1127C53.6467 51.1494 53.6062 51.1946 53.5571 51.2485C53.508 51.3023 53.4698 51.3421 53.4425 51.3679L52.9344 50.9276C52.9533 50.9143 52.9933 50.881 53.0544 50.8276C53.1156 50.7769 53.175 50.7184 53.2325 50.6521C53.3695 50.494 53.4586 50.3241 53.4999 50.1424C53.5414 49.9633 53.5354 49.7877 53.482 49.6154C53.4289 49.4458 53.3289 49.2973 53.1821 49.1701L51.1242 47.3869L51.5571 46.8873Z" fill="black"/>
<path d="M45.5617 52.0955C45.9105 51.8714 46.2608 51.755 46.6128 51.7464C46.9641 51.7404 47.2975 51.8325 47.6129 52.0228C47.9278 52.2156 48.2043 52.4974 48.4426 52.8682C48.6809 53.239 48.8234 53.6092 48.87 53.9789C48.9161 54.3511 48.8683 54.6948 48.7268 55.01C48.5847 55.3278 48.3502 55.5917 48.0234 55.8017C47.8349 55.9228 47.6285 56.0111 47.4043 56.0664C47.1801 56.1217 46.9471 56.1271 46.7054 56.0826C46.4647 56.0397 46.2254 55.9315 45.9874 55.7581C45.7494 55.5847 45.5219 55.3291 45.3048 54.9913L45.1533 54.7557L47.9437 52.9624L48.2527 53.4432L46.0279 54.8729C46.1592 55.0772 46.3171 55.2332 46.5018 55.3409C46.685 55.4497 46.8809 55.5025 47.0898 55.4992C47.297 55.497 47.5012 55.4313 47.7023 55.3021C47.9239 55.1597 48.0802 54.9815 48.1714 54.7675C48.2619 54.5561 48.2944 54.3355 48.2687 54.1055C48.2431 53.8756 48.1661 53.6608 48.0379 53.4613L47.8319 53.1408C47.6562 52.8674 47.4601 52.666 47.2437 52.5364C47.0267 52.4095 46.8015 52.351 46.5682 52.3611C46.3359 52.3728 46.1075 52.4508 45.8828 52.5952C45.7367 52.6891 45.6178 52.7943 45.5262 52.9109C45.4341 53.03 45.3716 53.159 45.3387 53.2978C45.3068 53.4382 45.3077 53.5864 45.3413 53.7424L44.707 53.9369C44.6465 53.7183 44.6385 53.4969 44.6832 53.2728C44.7289 53.0503 44.8252 52.8375 44.9722 52.6342C45.1201 52.4326 45.3166 52.253 45.5617 52.0955Z" fill="black"/>
<path d="M39.2076 54.9373C39.3402 54.8983 39.468 54.9124 39.5908 54.9795C39.7137 55.0466 39.7946 55.1464 39.8335 55.279C39.8725 55.4116 39.8584 55.5394 39.7913 55.6622C39.7242 55.7851 39.6244 55.866 39.4918 55.9049C39.3592 55.9439 39.2314 55.9298 39.1086 55.8627C38.9857 55.7956 38.9048 55.6958 38.8659 55.5632C38.8401 55.4754 38.8388 55.3881 38.862 55.3015C38.8835 55.2154 38.9243 55.1392 38.9847 55.0728C39.0437 55.0088 39.118 54.9636 39.2076 54.9373Z" fill="black"/>
</svg>
