<svg width="16" height="16" viewBox="0 0 16 16" fill="none" xmlns="http://www.w3.org/2000/svg">
<path d="M11 2C9.84 2 8.72667 2.54 8 3.39333C7.27333 2.54 6.16 2 5 2C2.94667 2 1.33333 3.61333 1.33333 5.66667C1.33333 8.18667 3.6 10.24 7.03333 13.36L8 14.2333L8.96667 13.3533C12.4 10.24 14.6667 8.18667 14.6667 5.66667C14.6667 3.61333 13.0533 2 11 2ZM8.06667 12.3667L8 12.4333L7.93333 12.3667C4.76 9.49333 2.66667 7.59333 2.66667 5.66667C2.66667 4.33333 3.66667 3.33333 5 3.33333C6.02667 3.33333 7.02667 3.99333 7.38 4.90667H8.62667C8.97333 3.99333 9.97333 3.33333 11 3.33333C12.3333 3.33333 13.3333 4.33333 13.3333 5.66667C13.3333 7.59333 11.24 9.49333 8.06667 12.3667Z" fill="black"/>
</svg>
